<svg id="Layer_1" data-name="Layer 1" xmlns="http://www.w3.org/2000/svg" viewBox="0 0 395.32 382.65"><defs><style>.cls-1{fill:#f7931e;}.cls-1,.cls-2,.cls-3,.cls-4,.cls-5,.cls-6{stroke:#000;stroke-miterlimit:10;}.cls-1,.cls-2,.cls-3,.cls-4,.cls-5{stroke-width:15px;}.cls-2{fill:none;}.cls-3{fill:#ff0;}.cls-5{fill:#009245;}.cls-6{font-size:17.85px;fill:red;font-family:Bauhaus93, "Bauhaus 93";text-decoration:underline;}</style></defs><title>circuitcure-logo-icon</title><rect class="cls-1" x="211.99" y="58.99" width="85.58" height="145.94"/><line class="cls-2" x1="170.5" y1="26.52" x2="361.25" y2="26.52"/><circle class="cls-3" cx="361.25" cy="178.35" r="26.58"/><circle class="cls-3" cx="361.25" cy="85.56" r="26.58"/><circle class="cls-4" cx="136.32" cy="244.04" r="45.32"/><line class="cls-2" x1="252.12" y1="25.97" x2="252.12" y2="58.99"/><rect class="cls-5" x="342.23" y="244.55" width="38.03" height="62.84"/><line class="cls-2" x1="361.25" y1="206.66" x2="361.25" y2="247.84"/><circle class="cls-3" cx="305.22" cy="348.57" r="26.58"/><line class="cls-2" x1="361.25" y1="307.39" x2="361.25" y2="348.57"/><line class="cls-2" x1="365.09" y1="348.57" x2="334.67" y2="348.57"/><line class="cls-2" x1="361.25" y1="22.44" x2="361.25" y2="58.48"/><rect class="cls-5" x="541.38" y="694.17" width="38.03" height="62.84" transform="translate(863.74 -533.88) rotate(90)"/><line class="cls-2" x1="361.25" y1="111.36" x2="361.25" y2="152.54"/><line class="cls-2" x1="216.95" y1="244.55" x2="178.37" y2="244.55"/><line class="cls-2" x1="254.78" y1="206.66" x2="254.78" y2="348.57"/><line class="cls-2" x1="281.59" y1="348.57" x2="178.37" y2="348.57"/><line class="cls-2" x1="213.52" y1="241.23" x2="213.52" y2="346.98"/><line class="cls-2" x1="31.66" y1="24.97" x2="31.66" y2="57.98"/><line class="cls-2" x1="27.88" y1="25.97" x2="106.74" y2="25.97"/><path class="cls-2" d="M454.15,754.93c-.21,9.19-8.27,16-12.69,24.05a4.86,4.86,0,0,0-.75,2.22c0,1.76,1.67,3,3.17,3.91l14.23,8.74c1.67,1,3.51,2.29,3.85,4.23s-.87,3.63-2,5.15l-15.28,20.45,23,15.13a74.94,74.94,0,0,1-16,20.29c-2.55,2.28-5.52,5.7-3.74,8.61a9.79,9.79,0,0,0,2.95,2.49,13.53,13.53,0,0,1,4.73,15.36" transform="translate(-422.24 -699.07)"/><circle class="cls-3" cx="34.08" cy="294.1" r="26.58"/><line class="cls-2" x1="95.75" y1="244.04" x2="31.96" y2="244.04"/><line class="cls-2" x1="34.08" y1="181.26" x2="34.08" y2="270.26"/><line class="cls-2" x1="77.06" y1="348.57" x2="31.53" y2="348.57"/><line class="cls-2" x1="34.08" y1="320.68" x2="34" y2="351.89"/><line class="cls-2" x1="145.32" y1="348.57" x2="106.74" y2="348.57"/><line class="cls-2" x1="77.06" y1="369.58" x2="77.06" y2="327.57"/><line class="cls-2" x1="106.74" y1="379.67" x2="106.74" y2="317.48"/><line class="cls-2" x1="197.66" y1="375.15" x2="143.76" y2="348.14"/><text class="cls-6" transform="translate(89.24 245.06)">CircuitCure</text></svg>